<?xml version="1.0" encoding="UTF-8"?>
<svg width="40px" height="40px" viewBox="0 0 40 40" version="1.1" xmlns="http://www.w3.org/2000/svg" xmlns:xlink="http://www.w3.org/1999/xlink">
    <title>小风车@2x</title>
    <g id="页面-1" stroke="none" stroke-width="1" fill="none" fill-rule="evenodd">
        <g id="画板" transform="translate(-10.000000, -10.000000)">
            <g id="小风车">
                <g id="编组-29" transform="translate(34.798990, 15.000000) rotate(-45.000000) translate(-34.798990, -15.000000) translate(20.798990, 8.000000)">
                    <path d="M0,0 L9.85786438,0 C12.5100293,1.28916205e-15 15.0535684,1.0535684 16.9289322,2.92893219 L28,14 L28,14 L0,14 L0,0 Z" id="矩形" fill="#19BC9C"></path>
                    <path d="M9.85786438,0 C12.5100293,1.28916205e-15 15.0535684,1.0535684 16.9289322,2.92893219 L17.0007031,3.00016205 C16.1649222,2.3721535 15.1259216,2 14,2 C12.8773897,2 11.84119,2.36996771 11.0066763,2.99462775 L-6.67910172e-13,14 L-6.67910172e-13,0 L9.85786438,0 Z" id="形状结合" fill="#17A185"></path>
                </g>
                <g id="编组-29" transform="translate(44.698485, 34.798990) rotate(-315.000000) translate(-44.698485, -34.798990) translate(30.698485, 27.798990)">
                    <path d="M0,0 L9.85786438,0 C12.5100293,1.28916205e-15 15.0535684,1.0535684 16.9289322,2.92893219 L28,14 L28,14 L0,14 L0,0 Z" id="矩形" fill="#30CC71"></path>
                    <path d="M9.85786438,0 C12.5100293,1.28916205e-15 15.0535684,1.0535684 16.9289322,2.92893219 L17.0007031,3.00016205 C16.1649222,2.3721535 15.1259216,2 14,2 C12.8773897,2 11.84119,2.36996771 11.0066763,2.99462775 L-6.67910172e-13,14 L-6.67910172e-13,0 L9.85786438,0 Z" id="形状结合" fill="#24AF60"></path>
                </g>
                <g id="编组-29" transform="translate(24.831459, 44.680566) rotate(-225.000000) translate(-24.831459, -44.680566) translate(10.831459, 37.680566)">
                    <path d="M0,0 L9.85786438,0 C12.5100293,1.28916205e-15 15.0535684,1.0535684 16.9289322,2.92893219 L28,14 L28,14 L0,14 L0,0 Z" id="矩形" fill="#E84C3C"></path>
                    <path d="M9.85786438,0 C12.5100293,1.28916205e-15 15.0535684,1.0535684 16.9289322,2.92893219 L17.0007031,3.00016205 C16.1649222,2.3721535 15.1259216,2 14,2 C12.8773897,2 11.84119,2.36996771 11.0066763,2.99462775 L-6.67910172e-13,14 L-6.67910172e-13,0 L9.85786438,0 Z" id="形状结合" fill="#C03A2B"></path>
                </g>
                <g id="编组-29" transform="translate(15.000000, 24.899495) rotate(-135.000000) translate(-15.000000, -24.899495) translate(1.000000, 17.899495)">
                    <path d="M0,0 L9.85786438,0 C12.5100293,1.28916205e-15 15.0535684,1.0535684 16.9289322,2.92893219 L28,14 L28,14 L0,14 L0,0 Z" id="矩形" fill="#F1C40F"></path>
                    <path d="M9.85786438,0 C12.5100293,1.28916205e-15 15.0535684,1.0535684 16.9289322,2.92893219 L17.0007031,3.00016205 C16.1649222,2.3721535 15.1259216,2 14,2 C12.8773897,2 11.84119,2.36996771 11.0066763,2.99462775 L-6.67910172e-13,14 L-6.67910172e-13,0 L9.85786438,0 Z" id="形状结合" fill="#F49C12"></path>
                </g>
                <circle id="椭圆形" fill="#FFFFFF" transform="translate(29.849242, 29.849242) rotate(-45.000000) translate(-29.849242, -29.849242) " cx="29.8492424" cy="29.8492424" r="4"></circle>
            </g>
        </g>
    </g>
</svg>